<?xml version="1.0" standalone="no"?>
<!DOCTYPE svg PUBLIC "-//W3C//DTD SVG 20010904//EN"
 "http://www.w3.org/TR/2001/REC-SVG-20010904/DTD/svg10.dtd">
<svg version="1.0" xmlns="http://www.w3.org/2000/svg"
 width="1280.000000pt" height="720.000000pt" viewBox="0 0 1280.000000 720.000000"
 preserveAspectRatio="xMidYMid meet">

<g transform="translate(0.000000,720.000000) scale(0.100000,-0.100000)"
fill="#000000" stroke="none">
<path d="M0 3600 l0 -3600 6400 0 6400 0 0 3600 0 3600 -6400 0 -6400 0 0
-3600z m6897 1584 c-3 -3 -12 -4 -19 -1 -8 3 -5 6 6 6 11 1 17 -2 13 -5z m216
-1 c-7 -2 -19 -2 -25 0 -7 3 -2 5 12 5 14 0 19 -2 13 -5z m-354 -258 c68 -18
116 -17 246 5 121 21 217 -3 254 -64 16 -27 20 -61 26 -246 12 -329 11 -349
-13 -397 -25 -48 -83 -108 -112 -116 -16 -4 -26 6 -47 45 -15 27 -39 56 -55
64 -34 18 -91 17 -143 -1 -49 -18 -52 -18 -37 -3 16 16 15 38 -1 38 -8 0 -28
-7 -45 -16 -19 -9 -50 -14 -79 -12 -59 4 -64 18 -33 90 27 63 33 173 10 173
-11 0 -17 -17 -22 -60 -4 -33 -17 -81 -28 -107 -11 -26 -20 -56 -20 -68 0 -11
-8 -23 -17 -26 -49 -15 -88 -42 -116 -81 -37 -52 -45 -45 -53 49 -7 76 12 474
26 549 17 87 61 172 101 192 38 19 64 18 158 -8z m-1114 -72 c139 -32 352 -37
425 -10 25 9 48 13 51 9 15 -18 31 -103 30 -167 -3 -182 -22 -538 -31 -585
-26 -135 -114 -250 -219 -285 -96 -31 -247 -6 -351 60 -29 18 -45 24 -53 16
-46 -46 227 -144 355 -127 l48 7 0 -57 c0 -68 -19 -104 -72 -134 -111 -62
-330 -16 -475 99 -29 23 -60 53 -70 67 -15 23 -15 27 -1 35 34 19 55 99 61
237 4 72 4 139 1 147 -4 8 -17 15 -30 15 -92 0 -164 95 -164 218 0 32 6 49 24
67 31 31 58 24 111 -32 23 -23 44 -43 48 -43 31 0 67 183 67 341 0 178 0 179
245 122z m1902 -255 c-2 -29 -3 -6 -3 52 0 58 1 81 3 53 2 -29 2 -77 0 -105z
m-1340 95 c-3 -10 -5 -4 -5 12 0 17 2 24 5 18 2 -7 2 -21 0 -30z m-10 -130
c-2 -16 -4 -3 -4 27 0 30 2 43 4 28 2 -16 2 -40 0 -55z m1340 -70 c22 -33 22
-123 0 -174 -21 -50 -80 -114 -120 -129 -17 -8 -40 -20 -49 -28 -16 -13 -18
-13 -24 3 -4 9 -4 60 0 112 6 89 9 98 46 153 53 78 66 90 100 90 21 0 35 -8
47 -27z m-483 -322 c26 -29 31 -91 11 -132 -22 -43 -72 -96 -108 -116 -79 -41
-213 -35 -278 13 -70 51 -101 149 -63 202 19 27 35 27 110 1 73 -25 132 -20
224 21 80 34 83 35 104 11z m363 -183 c-2 -24 -4 -5 -4 42 0 47 2 66 4 43 2
-24 2 -62 0 -85z m-24 -128 c16 -25 16 -27 -18 -77 -114 -169 -367 -264 -550
-207 -69 22 -93 42 -109 89 -16 46 -3 100 21 91 45 -18 148 -26 207 -16 91 14
140 34 210 84 74 52 118 100 171 183 l40 61 5 -91 c4 -63 11 -100 23 -117z
m337 -216 c0 -2 -9 0 -20 6 -11 6 -20 13 -20 16 0 2 9 0 20 -6 11 -6 20 -13
20 -16z m131 -81 c13 -16 12 -17 -3 -4 -10 7 -18 15 -18 17 0 8 8 3 21 -13z
m-994 -39 c-3 -3 -12 -4 -19 -1 -8 3 -5 6 6 6 11 1 17 -2 13 -5z m186 -1 c-7
-2 -19 -2 -25 0 -7 3 -2 5 12 5 14 0 19 -2 13 -5z m-70 -10 c-18 -2 -48 -2
-65 0 -18 2 -4 4 32 4 36 0 50 -2 33 -4z m-1886 -235 c48 -45 22 -113 -49
-127 -28 -6 -33 -11 -36 -39 -2 -20 -9 -32 -18 -32 -11 0 -14 21 -14 110 l0
110 47 0 c34 0 53 -6 70 -22z m181 2 c26 -24 29 -66 7 -97 -13 -19 -13 -25 0
-57 19 -45 19 -46 -6 -46 -15 0 -25 11 -36 40 -20 51 -47 51 -47 0 -1 -24 -6
-36 -18 -38 -15 -3 -17 10 -20 103 -2 59 -1 109 1 111 2 2 25 4 51 4 33 0 53
-6 68 -20z m201 -6 c16 -20 21 -41 21 -84 0 -75 -25 -110 -79 -110 -58 0 -86
35 -86 110 0 48 5 63 24 84 34 36 92 36 120 0z m171 -68 c0 -73 -4 -98 -16
-110 -32 -33 -104 -8 -104 36 0 26 36 23 43 -3 3 -12 12 -19 19 -17 9 3 14 31
16 96 2 84 5 92 22 92 18 0 20 -7 20 -94z m170 74 c0 -17 -7 -20 -40 -20 -36
0 -40 -2 -40 -25 0 -22 4 -25 35 -25 28 0 35 -4 35 -20 0 -16 -7 -20 -35 -20
-31 0 -35 -3 -35 -25 0 -22 4 -25 40 -25 33 0 40 -3 40 -20 0 -18 -7 -20 -60
-20 l-60 0 0 110 0 110 60 0 c53 0 60 -2 60 -20z m169 -6 c12 -15 21 -33 21
-40 0 -22 -38 -16 -45 6 -9 27 -51 26 -66 -1 -15 -29 -5 -100 17 -116 20 -15
54 -1 54 22 0 8 9 15 20 15 13 0 20 -7 20 -20 0 -44 -63 -74 -115 -54 -37 15
-57 101 -36 157 24 62 93 78 130 31z m191 6 c0 -15 -7 -20 -25 -20 -25 0 -25
-1 -25 -90 0 -83 -1 -90 -20 -90 -19 0 -20 7 -20 89 l0 90 -27 3 c-17 2 -29
10 -31 21 -3 15 6 17 72 17 69 0 76 -2 76 -20z m160 0 c0 -17 -7 -20 -40 -20
-36 0 -40 -2 -40 -25 0 -22 4 -25 35 -25 28 0 35 -4 35 -20 0 -16 -7 -20 -35
-20 -31 0 -35 -3 -35 -25 0 -22 4 -25 40 -25 33 0 40 -3 40 -20 0 -18 -7 -20
-60 -20 l-60 0 0 110 0 110 60 0 c53 0 60 -2 60 -20z m107 -147 c-2 -32 -3 -6
-3 57 0 63 1 89 3 58 2 -32 2 -84 0 -115z m223 147 c30 -30 27 -83 -6 -109
-15 -12 -40 -21 -55 -21 -26 0 -29 -3 -29 -35 0 -24 -5 -35 -15 -35 -12 0 -15
19 -15 110 l0 110 50 0 c37 0 55 -5 70 -20z m182 3 c22 -20 24 -71 3 -101 -14
-19 -14 -24 0 -51 20 -39 19 -51 -3 -51 -12 0 -25 14 -37 40 -23 51 -43 52
-47 3 -2 -27 -8 -39 -20 -41 -16 -3 -18 7 -18 107 l0 111 52 0 c34 0 58 -6 70
-17z m192 -2 c40 -45 38 -149 -5 -183 -11 -10 -34 -18 -49 -18 -59 0 -97 69
-80 146 12 51 36 74 80 74 24 0 43 -7 54 -19z m112 -33 l17 -53 18 40 c10 22
18 46 18 53 1 6 12 12 25 12 l25 0 -27 -57 c-14 -32 -29 -80 -32 -108 -4 -42
-8 -50 -25 -50 -16 0 -19 6 -17 32 2 19 -8 59 -27 101 -37 83 -36 82 -12 82
14 0 24 -13 37 -52z m264 32 c0 -17 -7 -20 -45 -20 -41 0 -45 -2 -45 -25 0
-22 4 -25 35 -25 28 0 35 -4 35 -20 0 -16 -7 -20 -35 -20 -31 0 -35 -3 -35
-25 0 -23 4 -25 45 -25 38 0 45 -3 45 -20 0 -18 -7 -20 -65 -20 l-65 0 0 110
0 110 65 0 c58 0 65 -2 65 -20z m159 -6 c26 -34 27 -54 1 -54 -11 0 -20 6 -20
14 0 7 -6 19 -14 25 -39 32 -77 -43 -55 -107 8 -24 17 -32 36 -32 16 0 27 7
30 20 6 23 43 27 43 5 0 -24 -46 -65 -72 -65 -54 0 -98 73 -83 140 17 78 92
108 134 54z m191 5 c0 -16 -5 -20 -27 -17 l-28 3 -3 -92 c-2 -85 -4 -93 -22
-93 -18 0 -20 7 -20 89 0 90 0 90 -27 93 -16 2 -27 10 -29 21 -2 15 7 17 77
17 73 0 79 -2 79 -21z m170 -11 c22 -37 26 -103 9 -141 -12 -26 -47 -47 -78
-47 -31 0 -70 39 -77 75 -15 84 21 145 87 145 34 0 42 -5 59 -32z m-1126 -316
c3 -9 5 -176 5 -370 -2 -330 -3 -353 -20 -363 -12 -6 -307 -8 -803 -7 l-785 3
-35 34 c-63 61 -67 85 -64 368 3 280 3 280 78 331 l33 22 793 0 c750 0 793 -1
798 -18z m743 -2 c61 -37 63 -50 63 -357 0 -258 -1 -280 -20 -310 -39 -64 -34
-64 -381 -61 l-314 3 -3 360 c-2 330 -1 361 15 373 13 9 92 12 312 12 276 0
298 -1 328 -20z"/>
<path d="M6942 4630 c-53 -13 -91 -57 -62 -75 5 -3 23 1 39 10 44 22 117 19
158 -6 28 -18 37 -19 43 -8 29 46 -91 100 -178 79z"/>
<path d="M6522 4614 c-22 -15 -30 -48 -13 -58 5 -3 22 1 37 9 37 19 77 19 115
0 27 -14 30 -14 36 1 4 12 -3 25 -21 41 -33 28 -118 32 -154 7z"/>
<path d="M6596 4488 c-21 -30 -20 -61 3 -89 16 -20 23 -22 38 -13 29 18 40 61
22 92 -19 35 -43 39 -63 10z"/>
<path d="M6970 4490 c-22 -22 -25 -46 -10 -85 13 -34 48 -31 69 6 12 22 12 31
2 57 -16 39 -36 47 -61 22z"/>
<path d="M5574 4603 c-30 -6 -55 -35 -45 -52 7 -11 15 -11 46 -1 23 8 65 11
106 8 61 -5 69 -3 69 12 0 32 -94 49 -176 33z"/>
<path d="M5936 4594 c-31 -31 -19 -41 47 -41 34 0 73 -2 86 -4 37 -6 36 18 -1
41 -40 24 -110 27 -132 4z"/>
<path d="M5628 4480 c-25 -15 -33 -66 -14 -95 29 -45 76 -20 76 40 0 18 -7 41
-16 49 -18 18 -23 19 -46 6z"/>
<path d="M5944 4465 c-29 -44 3 -112 46 -97 22 8 30 23 30 63 0 60 -45 81 -76
34z"/>
<path d="M5194 4419 c-4 -6 7 -22 24 -35 21 -17 32 -36 37 -65 7 -40 28 -60
45 -43 11 12 -21 108 -45 134 -20 22 -50 26 -61 9z"/>
<path d="M5867 4404 c-17 -17 -4 -70 29 -125 32 -51 35 -61 23 -75 -11 -13
-25 -15 -71 -10 -48 5 -58 3 -58 -9 0 -33 90 -46 139 -20 48 24 47 70 -1 138
-12 17 -24 46 -27 65 -6 34 -20 49 -34 36z"/>
<path d="M5602 4137 c-14 -16 12 -48 57 -71 92 -48 321 -41 321 10 0 14 -6 15
-37 8 -21 -5 -78 -9 -128 -9 -93 1 -133 13 -181 57 -17 15 -23 16 -32 5z"/>
<path d="M7461 4469 c-45 -42 -71 -149 -36 -149 9 0 17 6 19 13 2 6 9 31 15
55 8 29 20 46 37 54 27 12 29 41 4 46 -9 1 -26 -7 -39 -19z"/>
<path d="M6943 4120 c-72 -39 -130 -46 -206 -26 -82 22 -102 24 -102 7 0 -25
84 -50 173 -50 69 -1 92 3 137 24 58 28 80 48 70 65 -8 14 -12 13 -72 -20z"/>
<path d="M6737 3962 c20 -15 108 -11 124 5 6 6 -18 9 -66 9 -65 -1 -73 -3 -58
-14z"/>
<path d="M5010 3225 c0 -30 3 -35 24 -35 30 0 50 23 41 50 -4 14 -15 20 -36
20 -27 0 -29 -3 -29 -35z"/>
<path d="M5192 3228 c2 -27 7 -33 27 -33 28 0 47 25 38 49 -4 10 -18 16 -37
16 -29 0 -31 -2 -28 -32z"/>
<path d="M5380 3234 c-13 -33 -13 -57 1 -88 28 -60 79 -32 79 44 0 51 -13 70
-47 70 -16 0 -27 -8 -33 -26z"/>
<path d="M6580 3225 c0 -35 1 -36 33 -33 28 3 32 6 32 33 0 27 -4 30 -32 33
-32 3 -33 2 -33 -33z"/>
<path d="M6770 3224 c0 -31 3 -35 21 -32 48 7 51 68 4 68 -22 0 -25 -4 -25
-36z"/>
<path d="M6954 3237 c-10 -41 0 -99 19 -111 27 -17 51 5 55 49 6 64 -4 85 -38
85 -23 0 -31 -5 -36 -23z"/>
<path d="M7846 3248 c-32 -45 -9 -128 34 -128 24 0 40 29 40 72 0 37 -24 78
-45 78 -8 0 -21 -10 -29 -22z"/>
<path d="M5457 2880 c-127 -32 -207 -144 -207 -290 0 -120 54 -216 147 -261
63 -31 178 -32 243 -2 54 24 103 75 119 122 19 58 16 61 -44 61 -51 0 -56 -2
-70 -30 -42 -81 -145 -91 -217 -23 -59 56 -60 194 -2 270 59 78 189 58 225
-36 9 -21 14 -23 59 -19 28 3 53 8 57 11 11 12 -16 81 -47 119 -55 66 -171
101 -263 78z"/>
<path d="M6517 2863 c-4 -3 -7 -127 -7 -274 l0 -269 23 -6 c13 -3 41 -4 63 -2
l39 3 3 278 2 277 -58 0 c-32 0 -62 -3 -65 -7z"/>
<path d="M5890 2781 c0 -47 -2 -50 -27 -53 -26 -3 -28 -6 -28 -48 0 -42 2 -45
28 -48 l27 -3 0 -112 c0 -69 5 -121 13 -136 21 -42 62 -64 125 -69 69 -5 85 8
80 65 -2 29 -8 39 -23 41 -69 10 -65 3 -65 112 l0 100 35 0 35 0 0 51 0 51
-35 -4 -34 -4 -3 51 -3 50 -62 3 -63 3 0 -50z"/>
<path d="M6376 2730 c-15 -5 -36 -16 -46 -25 -16 -15 -18 -14 -23 5 -4 17 -13
20 -66 20 l-61 0 2 -207 3 -208 60 0 60 0 5 132 c6 153 11 164 87 173 l48 5 0
55 c0 61 -10 68 -69 50z"/>
<path d="M7057 2863 c-12 -11 -8 -70 6 -81 6 -5 64 -11 127 -11 63 -1 116 -4
118 -6 4 -3 -206 -292 -240 -331 -12 -13 -18 -36 -18 -67 l0 -47 215 0 215 0
0 55 0 54 -130 3 -130 3 130 178 c114 157 130 184 130 218 l0 39 -208 0 c-115
0 -212 -3 -215 -7z"/>
</g>
</svg>
